<mxfile host="app.diagrams.net" modified="2024-04-28T01:54:14.195Z" agent="Mozilla/5.0 (Windows NT 10.0; Win64; x64) AppleWebKit/537.36 (KHTML, like Gecko) Chrome/124.0.0.0 Safari/537.36 Edg/124.0.0.0" etag="grBvUWEbjyP-xtx1VX-b" version="24.3.1" type="github">
  <diagram name="第 1 页" id="fjUk0NTKTYOrOxemjdaE">
    <mxGraphModel dx="1173" dy="734" grid="1" gridSize="10" guides="1" tooltips="1" connect="1" arrows="1" fold="1" page="1" pageScale="1" pageWidth="827" pageHeight="1169" math="0" shadow="0">
      <root>
        <mxCell id="0" />
        <mxCell id="1" parent="0" />
        <mxCell id="yN61JKeNBkrPRX3mFXcv-1" value="" style="rounded=0;whiteSpace=wrap;html=1;" vertex="1" parent="1">
          <mxGeometry x="180" y="80" width="430" height="490" as="geometry" />
        </mxCell>
        <mxCell id="yN61JKeNBkrPRX3mFXcv-2" value="DDL" style="edgeStyle=orthogonalEdgeStyle;rounded=0;orthogonalLoop=1;jettySize=auto;html=1;exitX=0.5;exitY=0;exitDx=0;exitDy=0;entryX=0.5;entryY=1;entryDx=0;entryDy=0;" edge="1" parent="1" source="yN61JKeNBkrPRX3mFXcv-3" target="yN61JKeNBkrPRX3mFXcv-5">
          <mxGeometry relative="1" as="geometry" />
        </mxCell>
        <mxCell id="yN61JKeNBkrPRX3mFXcv-3" value="mysql" style="rounded=0;whiteSpace=wrap;html=1;" vertex="1" parent="1">
          <mxGeometry x="360" y="360" width="120" height="60" as="geometry" />
        </mxCell>
        <mxCell id="yN61JKeNBkrPRX3mFXcv-4" value="API" style="edgeStyle=orthogonalEdgeStyle;rounded=0;orthogonalLoop=1;jettySize=auto;html=1;exitX=0.5;exitY=0;exitDx=0;exitDy=0;entryX=0.5;entryY=1;entryDx=0;entryDy=0;" edge="1" parent="1" source="yN61JKeNBkrPRX3mFXcv-5" target="yN61JKeNBkrPRX3mFXcv-10">
          <mxGeometry relative="1" as="geometry" />
        </mxCell>
        <mxCell id="yN61JKeNBkrPRX3mFXcv-5" value="目标管理系统服务" style="rounded=0;whiteSpace=wrap;html=1;" vertex="1" parent="1">
          <mxGeometry x="360" y="240" width="120" height="60" as="geometry" />
        </mxCell>
        <mxCell id="yN61JKeNBkrPRX3mFXcv-6" style="edgeStyle=orthogonalEdgeStyle;rounded=0;orthogonalLoop=1;jettySize=auto;html=1;exitX=0.5;exitY=0;exitDx=0;exitDy=0;entryX=0;entryY=0.5;entryDx=0;entryDy=0;" edge="1" parent="1" source="yN61JKeNBkrPRX3mFXcv-8" target="yN61JKeNBkrPRX3mFXcv-5">
          <mxGeometry relative="1" as="geometry" />
        </mxCell>
        <mxCell id="yN61JKeNBkrPRX3mFXcv-7" value="API" style="edgeLabel;html=1;align=center;verticalAlign=middle;resizable=0;points=[];" vertex="1" connectable="0" parent="yN61JKeNBkrPRX3mFXcv-6">
          <mxGeometry x="-0.152" relative="1" as="geometry">
            <mxPoint as="offset" />
          </mxGeometry>
        </mxCell>
        <mxCell id="yN61JKeNBkrPRX3mFXcv-8" value="数据湖" style="rounded=0;whiteSpace=wrap;html=1;" vertex="1" parent="1">
          <mxGeometry x="240" y="460" width="120" height="60" as="geometry" />
        </mxCell>
        <mxCell id="yN61JKeNBkrPRX3mFXcv-9" value="数据聚合" style="text;html=1;align=center;verticalAlign=middle;whiteSpace=wrap;rounded=0;" vertex="1" parent="1">
          <mxGeometry x="450" y="270" width="60" height="30" as="geometry" />
        </mxCell>
        <mxCell id="yN61JKeNBkrPRX3mFXcv-10" value="目标管理系统微前端" style="rounded=0;whiteSpace=wrap;html=1;" vertex="1" parent="1">
          <mxGeometry x="360" y="130" width="120" height="60" as="geometry" />
        </mxCell>
      </root>
    </mxGraphModel>
  </diagram>
</mxfile>
